<svg width="603" height="121" viewBox="0 0 603 121" fill="none" xmlns="http://www.w3.org/2000/svg">
<path d="M21.9728 9.344V48H14.8048V9.344H0.788751V3.328H35.9888V9.344H21.9728ZM55.5478 48.768C53.0304 48.768 50.7691 48.3627 48.7638 47.552C46.7584 46.7413 45.0731 45.5893 43.7078 44.096C42.3424 42.6027 41.2971 40.8107 40.5718 38.72C39.8464 36.5867 39.4838 34.1973 39.4838 31.552C39.4838 28.9067 39.8464 26.5173 40.5718 24.384C41.3398 22.2507 42.3851 20.4373 43.7078 18.944C45.0731 17.408 46.7158 16.2347 48.6358 15.424C50.5558 14.6133 52.6891 14.208 55.0358 14.208C57.3398 14.208 59.4304 14.6133 61.3078 15.424C63.1851 16.192 64.7851 17.3013 66.1078 18.752C67.4304 20.2027 68.4331 21.9307 69.1158 23.936C69.8411 25.9413 70.2038 28.16 70.2038 30.592V33.216H46.5238V34.304C46.5238 36.9067 47.3344 39.04 48.9558 40.704C50.5771 42.3253 52.8171 43.136 55.6758 43.136C57.8091 43.136 59.6224 42.688 61.1158 41.792C62.6518 40.8533 63.8891 39.616 64.8278 38.08L69.1798 41.92C68.0704 43.84 66.3638 45.4613 64.0598 46.784C61.7984 48.1067 58.9611 48.768 55.5478 48.768ZM55.0358 19.52C53.7984 19.52 52.6464 19.7333 51.5798 20.16C50.5558 20.5867 49.6598 21.2053 48.8918 22.016C48.1664 22.784 47.5904 23.7013 47.1638 24.768C46.7371 25.8347 46.5238 27.008 46.5238 28.288V28.736H63.0998V28.096C63.0998 25.4933 62.3531 23.424 60.8598 21.888C59.4091 20.3093 57.4678 19.52 55.0358 19.52ZM92.5148 48.768C90.0401 48.768 87.8214 48.3627 85.8588 47.552C83.9388 46.7413 82.2961 45.5893 80.9308 44.096C79.6081 42.6027 78.5841 40.7893 77.8588 38.656C77.1761 36.5227 76.8348 34.1333 76.8348 31.488C76.8348 28.8427 77.1761 26.4533 77.8588 24.32C78.5841 22.1867 79.6081 20.3733 80.9308 18.88C82.2961 17.3867 83.9388 16.2347 85.8588 15.424C87.8214 14.6133 90.0188 14.208 92.4508 14.208C95.8641 14.208 98.5948 14.9333 100.643 16.384C102.733 17.8347 104.291 19.712 105.315 22.016L99.8748 24.96C99.2774 23.424 98.3601 22.208 97.1228 21.312C95.9281 20.416 94.3708 19.968 92.4508 19.968C89.8054 19.968 87.7574 20.7787 86.3068 22.4C84.8561 23.9787 84.1308 26.0907 84.1308 28.736V34.24C84.1308 36.8427 84.8561 38.9547 86.3068 40.576C87.7574 42.1973 89.8481 43.008 92.5788 43.008C94.6268 43.008 96.2908 42.5387 97.5708 41.6C98.8934 40.6613 99.9388 39.3813 100.707 37.76L105.827 40.896C104.76 43.2 103.139 45.0987 100.963 46.592C98.7868 48.0427 95.9708 48.768 92.5148 48.768ZM113.93 0.639999H120.906V20.608H121.226C121.567 19.7547 121.994 18.944 122.506 18.176C123.06 17.3653 123.722 16.6827 124.49 16.128C125.258 15.5307 126.154 15.0613 127.178 14.72C128.202 14.3787 129.396 14.208 130.762 14.208C134.09 14.208 136.778 15.296 138.826 17.472C140.874 19.648 141.898 22.7413 141.898 26.752V48H134.922V27.776C134.922 22.528 132.639 19.904 128.074 19.904C127.178 19.904 126.303 20.032 125.45 20.288C124.596 20.5013 123.828 20.8427 123.146 21.312C122.463 21.7813 121.908 22.3787 121.482 23.104C121.098 23.8293 120.906 24.6613 120.906 25.6V48H113.93V0.639999ZM150.385 48V14.976H157.361V20.608H157.681C158.022 19.7547 158.449 18.944 158.961 18.176C159.515 17.3653 160.177 16.6827 160.945 16.128C161.713 15.5307 162.609 15.0613 163.633 14.72C164.657 14.3787 165.851 14.208 167.217 14.208C170.545 14.208 173.233 15.296 175.281 17.472C177.329 19.648 178.353 22.7413 178.353 26.752V48H171.377V27.776C171.377 22.528 169.094 19.904 164.529 19.904C163.633 19.904 162.758 20.032 161.905 20.288C161.051 20.5013 160.283 20.8427 159.601 21.312C158.918 21.7813 158.363 22.3787 157.937 23.104C157.553 23.8293 157.361 24.6613 157.361 25.6V48H150.385ZM202.712 8.96C200.92 8.96 199.661 8.59733 198.936 7.872C198.253 7.14666 197.912 6.25066 197.912 5.184V3.84C197.912 2.77333 198.253 1.87733 198.936 1.152C199.661 0.426665 200.898 0.0639992 202.648 0.0639992C204.44 0.0639992 205.677 0.426665 206.36 1.152C207.085 1.87733 207.448 2.77333 207.448 3.84V5.184C207.448 6.25066 207.085 7.14666 206.36 7.872C205.677 8.59733 204.461 8.96 202.712 8.96ZM187.928 42.368H199.192V20.608H187.928V14.976H206.168V42.368H216.728V48H187.928V42.368ZM223.551 0.639999H230.527V29.248H230.847L236.031 23.936L245.311 14.976H253.567L240.191 27.968L255.039 48H246.655L235.135 31.936L230.527 36.224V48H223.551V0.639999ZM402.624 47.04C404.586 46.4 406.293 45.9947 407.744 45.824L415.936 5.376C414.57 5.07733 413.034 4.65066 411.328 4.096L411.52 3.2H430.592C435.712 3.2 439.466 4.39466 441.856 6.784C444.245 9.17333 445.44 12.7147 445.44 17.408C445.44 19.7547 445.141 22.4853 444.544 25.6C443.008 32.9387 440.362 38.5067 436.608 42.304C432.896 46.1013 427.84 48 421.44 48H402.432L402.624 47.04ZM421.824 45.44C426.005 45.44 429.312 43.7333 431.744 40.32C434.218 36.864 436.096 31.9573 437.376 25.6C438.144 21.76 438.528 18.6453 438.528 16.256C438.528 12.8853 437.845 10.304 436.48 8.512C435.157 6.72 433.002 5.824 430.016 5.824H422.848L414.72 45.44H421.824ZM466.701 15.552C475.149 15.552 479.373 17.856 479.373 22.464C479.373 23.0613 479.309 23.68 479.181 24.32C478.327 28.5013 475.362 31.4667 470.285 33.216C465.25 34.9227 459.746 35.8613 453.773 36.032C453.687 39.104 454.349 41.5787 455.757 43.456C457.165 45.2907 459.383 46.208 462.413 46.208C464.077 46.208 465.89 45.9093 467.853 45.312C469.858 44.7147 471.629 43.9253 473.165 42.944L473.485 44.8C472.034 45.8667 470.135 46.784 467.789 47.552C465.442 48.2773 462.989 48.64 460.429 48.64C456.119 48.64 452.77 47.5307 450.381 45.312C448.034 43.0933 446.861 40.0853 446.861 36.288C446.861 34.88 447.01 33.4933 447.309 32.128C448.375 27.0507 450.615 23.0187 454.029 20.032C457.485 17.0453 461.709 15.552 466.701 15.552ZM473.101 24.576C473.186 23.8933 473.229 23.424 473.229 23.168C473.229 21.6747 472.695 20.4587 471.629 19.52C470.605 18.5813 468.962 18.112 466.701 18.112C463.415 18.112 460.706 19.4773 458.573 22.208C456.482 24.9387 455.053 28.1813 454.285 31.936L453.965 33.664C458.701 33.28 462.903 32.4053 466.573 31.04C470.285 29.632 472.461 27.4773 473.101 24.576ZM490.4 48.64C487.242 48.64 484.576 48.1707 482.4 47.232C480.266 46.2933 479.2 44.8213 479.2 42.816C479.2 42.6027 479.242 42.1973 479.328 41.6C479.413 41.0453 479.733 40.512 480.288 40C480.842 39.4453 481.546 39.168 482.4 39.168C483.082 39.168 483.616 39.4027 484 39.872C484.426 40.2987 484.576 40.8107 484.448 41.408C484.405 41.6213 484.32 41.8987 484.192 42.24C484.106 42.5387 484.042 42.7733 484 42.944C483.914 43.3707 484.128 43.84 484.64 44.352C485.152 44.8213 485.856 45.2267 486.752 45.568C487.648 45.9093 488.65 46.08 489.76 46.08C492.192 46.08 494.154 45.5467 495.648 44.48C497.184 43.4133 498.144 41.8773 498.528 39.872C498.613 39.4453 498.656 39.1467 498.656 38.976C498.656 37.7387 498.122 36.7573 497.056 36.032C495.989 35.3067 494.325 34.496 492.064 33.6C490.186 32.832 488.672 32.1493 487.52 31.552C486.41 30.9547 485.45 30.144 484.64 29.12C483.829 28.096 483.424 26.8373 483.424 25.344C483.424 22.1867 484.746 19.776 487.392 18.112C490.08 16.4053 493.344 15.552 497.184 15.552C500.341 15.552 502.986 16 505.12 16.896C507.253 17.7493 508.32 19.1573 508.32 21.12C508.32 21.3333 508.277 21.696 508.192 22.208C508.064 22.72 507.722 23.2107 507.168 23.68C506.656 24.1493 505.994 24.384 505.184 24.384C504.458 24.384 503.861 24.2133 503.392 23.872C502.922 23.488 502.773 22.9973 502.944 22.4C502.986 22.2293 503.05 21.9947 503.136 21.696C503.264 21.3973 503.349 21.1413 503.392 20.928C503.562 20.2027 503.136 19.5413 502.112 18.944C501.088 18.3467 499.744 18.048 498.08 18.048C496.032 18.048 494.325 18.4107 492.96 19.136C491.637 19.8613 490.805 21.0133 490.464 22.592C490.378 23.0187 490.336 23.3173 490.336 23.488C490.336 24.768 490.869 25.792 491.936 26.56C493.002 27.2853 494.688 28.1387 496.992 29.12C498.869 29.8453 500.384 30.528 501.536 31.168C502.688 31.808 503.669 32.6613 504.48 33.728C505.29 34.752 505.696 36.0107 505.696 37.504C505.696 38.1013 505.632 38.72 505.504 39.36C504.864 42.432 503.157 44.7573 500.384 46.336C497.653 47.872 494.325 48.64 490.4 48.64ZM522.202 12.928C521.221 12.928 520.432 12.672 519.834 12.16C519.28 11.6053 519.002 10.9013 519.002 10.048C519.002 9.792 519.045 9.45066 519.13 9.024C519.386 7.872 519.941 6.93333 520.794 6.208C521.648 5.44 522.65 5.056 523.802 5.056C524.784 5.056 525.552 5.35467 526.106 5.952C526.704 6.50666 527.002 7.232 527.002 8.128C527.002 8.512 526.981 8.81067 526.938 9.024C526.682 10.176 526.106 11.1147 525.21 11.84C524.357 12.5653 523.354 12.928 522.202 12.928ZM517.53 48.64C516.25 48.64 515.205 48.192 514.394 47.296C513.626 46.3573 513.242 45.12 513.242 43.584C513.242 42.9867 513.306 42.3467 513.434 41.664L518.106 18.56C516.442 18.176 515.098 17.792 514.074 17.408L514.202 16.832L525.53 15.68L520.218 41.536C520.048 42.56 519.962 43.3067 519.962 43.776C519.962 44.8853 520.282 45.44 520.922 45.44C521.733 45.44 522.693 44.6933 523.802 43.2C524.954 41.664 525.872 40.0427 526.554 38.336L527.834 39.04C526.725 41.856 525.274 44.16 523.482 45.952C521.69 47.744 519.706 48.64 517.53 48.64ZM562.947 14.464C563.886 14.464 564.611 14.72 565.123 15.232C565.635 15.7013 565.891 16.3627 565.891 17.216C565.891 17.6 565.87 17.8987 565.827 18.112C565.657 18.7947 565.294 19.4133 564.739 19.968C564.185 20.48 563.566 20.736 562.883 20.736C562.201 20.736 561.753 20.608 561.539 20.352C561.326 20.0533 561.155 19.6053 561.027 19.008C560.942 18.2827 560.686 17.92 560.259 17.92C559.875 17.92 559.449 18.1333 558.979 18.56C558.51 18.9867 558.233 19.2427 558.147 19.328C559.086 20.608 559.555 22.1227 559.555 23.872C559.555 24.6827 559.47 25.4293 559.299 26.112C558.617 29.4827 556.867 32.0853 554.051 33.92C551.278 35.7547 547.779 36.672 543.555 36.672C540.91 36.672 538.713 36.3307 536.963 35.648C535.513 36.6293 534.787 37.6747 534.787 38.784C534.787 39.552 535.214 40.1067 536.067 40.448C536.963 40.7893 538.243 40.96 539.907 40.96H548.803C551.15 40.96 553.07 41.472 554.563 42.496C556.099 43.52 556.867 44.992 556.867 46.912C556.867 47.424 556.803 47.9787 556.675 48.576C556.035 51.7333 554.179 54.08 551.107 55.616C548.078 57.152 544.046 57.92 539.011 57.92C535.086 57.92 532.099 57.3867 530.051 56.32C528.003 55.2533 526.979 53.6533 526.979 51.52C526.979 50.2827 527.342 49.0453 528.067 47.808C528.793 46.528 529.923 45.4827 531.459 44.672C530.435 43.8187 529.923 42.6453 529.923 41.152C529.923 39.9573 530.329 38.784 531.139 37.632C531.95 36.4373 533.145 35.3707 534.723 34.432C532.761 32.9813 531.779 30.976 531.779 28.416C531.779 27.6053 531.865 26.8373 532.035 26.112C532.718 22.784 534.446 20.2027 537.219 18.368C540.035 16.4907 543.577 15.552 547.843 15.552C551.555 15.552 554.457 16.2773 556.547 17.728C557.699 16.704 558.766 15.9147 559.747 15.36C560.729 14.7627 561.795 14.464 562.947 14.464ZM552.515 26.112C552.686 25.3867 552.771 24.6187 552.771 23.808C552.771 22.0587 552.323 20.672 551.427 19.648C550.531 18.624 549.166 18.112 547.331 18.112C545.113 18.112 543.257 18.8587 541.763 20.352C540.27 21.8453 539.289 23.7653 538.819 26.112C538.649 26.8373 538.563 27.6053 538.563 28.416C538.563 30.1653 539.011 31.552 539.907 32.576C540.846 33.6 542.233 34.112 544.067 34.112C546.286 34.112 548.121 33.3653 549.571 31.872C551.065 30.3787 552.046 28.4587 552.515 26.112ZM535.811 45.952C535.427 45.952 534.937 45.9093 534.339 45.824C532.633 47.2747 531.779 48.9387 531.779 50.816C531.779 52.4373 532.547 53.632 534.083 54.4C535.662 55.168 537.646 55.552 540.035 55.552C542.937 55.552 545.475 55.0613 547.651 54.08C549.827 53.1413 551.129 51.6907 551.555 49.728C551.598 49.5147 551.619 49.2373 551.619 48.896C551.619 47.744 551.065 46.976 549.955 46.592C548.889 46.1653 547.225 45.952 544.963 45.952H535.811ZM602.983 39.04C601.831 41.8133 600.337 44.1173 598.503 45.952C596.711 47.744 594.705 48.64 592.487 48.64C591.207 48.64 590.225 48.1067 589.543 47.04C588.86 45.9307 588.519 44.544 588.519 42.88C588.519 41.984 588.604 41.1307 588.775 40.32L590.887 29.952C591.484 26.88 591.783 24.5547 591.783 22.976C591.783 21.2267 591.441 19.9893 590.759 19.264C590.119 18.496 589.095 18.112 587.687 18.112C586.151 18.112 584.295 19.0933 582.119 21.056C579.985 23.0187 577.895 25.664 575.847 28.992L572.007 48L564.967 48.64L571.175 18.432C569.596 18.0907 568.273 17.7067 567.207 17.28L567.271 16.704L578.599 15.552L576.743 24.576C578.492 21.9733 580.497 19.8187 582.759 18.112C585.063 16.4053 587.516 15.552 590.119 15.552C592.892 15.552 595.025 16.1707 596.519 17.408C598.055 18.6027 598.823 20.48 598.823 23.04C598.823 24.0213 598.695 25.1307 598.439 26.368L595.303 41.792C595.132 42.7307 595.047 43.392 595.047 43.776C595.047 44.8853 595.367 45.44 596.007 45.44C596.775 45.44 597.735 44.672 598.887 43.136C600.081 41.6 601.02 40 601.703 38.336L602.983 39.04ZM340.671 94.528C340.671 87.616 340.308 81.3013 339.583 75.584C339.583 74.688 340.201 74.24 341.439 74.24C342.676 74.24 344.319 75.4347 346.367 77.824C348.415 80.1707 350.377 82.752 352.255 85.568C354.132 88.384 356.009 90.9867 357.887 93.376C359.807 95.7227 361.172 96.896 361.983 96.896C362.793 96.896 364.095 95.6587 365.887 93.184C367.721 90.6667 369.513 87.936 371.263 84.992C373.055 82.0053 374.975 79.2747 377.023 76.8C379.113 74.2827 380.777 73.024 382.015 73.024C383.295 73.024 383.935 73.3653 383.935 74.048C384.319 79.296 384.511 83.9893 384.511 88.128C384.511 92.2667 384.489 95.6373 384.447 98.24C384.404 100.8 384.361 102.677 384.319 103.872C384.319 105.024 384.255 107.691 384.127 111.872C383.999 116.011 383.935 118.443 383.935 119.168C383.295 120.064 382.42 120.512 381.311 120.512C380.841 120.512 380.393 120.384 379.967 120.128C379.711 114.88 379.583 108.693 379.583 101.568C379.583 94.4427 379.647 87.0613 379.775 79.424C378.921 80.1067 377.705 81.7067 376.127 84.224C374.591 86.6987 373.097 89.1733 371.647 91.648C370.196 94.08 368.553 96.2987 366.719 98.304C364.884 100.267 363.177 101.248 361.599 101.248C360.02 101.248 358.207 100.096 356.159 97.792C354.153 95.488 351.913 92.3733 349.439 88.448C347.007 84.48 345.407 82.0053 344.639 81.024C344.852 84.608 344.959 88.3413 344.959 92.224C344.959 96.064 344.937 98.752 344.895 100.288C344.852 107.115 344.724 113.323 344.511 118.912C343.828 119.808 342.761 120.256 341.311 120.256C340.927 120.256 340.564 120.192 340.223 120.064C340.223 120.064 340.372 111.552 340.671 94.528ZM396.134 107.008C396.048 107.861 396.006 108.437 396.006 108.736C396.006 111.296 396.774 113.28 398.31 114.688C399.888 116.096 401.744 116.8 403.878 116.8C406.011 116.8 407.739 116.501 409.062 115.904C410.427 115.307 411.408 114.667 412.006 113.984C413.542 112.064 414.95 111.104 416.23 111.104C416.699 111.104 417.254 111.232 417.894 111.488C417.467 113.579 415.846 115.499 413.03 117.248C410.256 118.955 406.758 119.808 402.534 119.808C399.547 119.808 396.966 118.869 394.79 116.992C392.656 115.072 391.59 112.469 391.59 109.184C391.59 105.899 392.23 102.72 393.51 99.648C394.832 96.5333 396.71 93.888 399.142 91.712C401.616 89.4933 404.112 88.384 406.63 88.384C409.19 88.384 411.238 88.9173 412.774 89.984C414.352 91.008 415.142 92.5227 415.142 94.528C415.142 98.24 413.478 101.312 410.15 103.744C406.864 106.133 403.366 107.328 399.654 107.328C398.672 107.328 397.499 107.221 396.134 107.008ZM400.998 104.896C403.003 104.896 404.795 104.256 406.374 102.976C407.952 101.696 409.062 100.352 409.702 98.944C410.384 97.536 410.726 96.256 410.726 95.104C410.726 93.952 410.278 92.9493 409.382 92.096C408.486 91.2 407.44 90.752 406.246 90.752C404.112 90.752 402.128 92.224 400.294 95.168C398.502 98.112 397.222 101.163 396.454 104.32C398.331 104.704 399.846 104.896 400.998 104.896ZM449.424 118.208C448.656 119.019 447.781 119.424 446.8 119.424C444.965 119.424 443.6 118.443 442.704 116.48C441.808 114.517 441.274 112.128 441.104 109.312C440.976 106.496 440.89 103.68 440.848 100.864C440.805 98.048 440.57 95.6587 440.144 93.696C439.76 91.7333 439.013 90.752 437.904 90.752C436.41 90.752 435.13 92.096 434.064 94.784C433.04 97.472 432.314 100.459 431.888 103.744C430.693 112.917 429.541 118.059 428.432 119.168C427.664 119.552 427.002 119.744 426.448 119.744C425.893 119.744 425.424 119.68 425.04 119.552C424.144 115.627 423.568 108.864 423.312 99.264C423.226 94.4853 423.141 91.392 423.056 89.984C423.952 89.3867 424.72 89.088 425.36 89.088C426 89.088 426.512 89.152 426.896 89.28C427.109 91.1147 427.216 94.8693 427.216 100.544C427.258 106.219 427.301 109.483 427.344 110.336C427.557 109.44 427.813 107.989 428.112 105.984C428.453 103.979 428.752 102.336 429.008 101.056C429.264 99.7333 429.669 98.1973 430.224 96.448C430.778 94.6987 431.397 93.312 432.08 92.288C432.762 91.2213 433.701 90.3253 434.896 89.6C436.09 88.832 437.434 88.448 438.928 88.448C440.933 88.448 442.384 89.3653 443.28 91.2C444.218 92.992 444.73 95.232 444.816 97.92C444.901 100.608 444.944 103.339 444.944 106.112C444.986 108.885 445.328 111.424 445.968 113.728C446.65 116.032 447.802 117.525 449.424 118.208ZM469.621 94.4C469.237 93.4187 468.512 92.6507 467.445 92.096C466.379 91.5413 465.056 91.264 463.477 91.264C461.899 91.264 460.405 91.7333 458.997 92.672C457.632 93.6107 456.949 94.8693 456.949 96.448C456.949 98.0267 457.589 99.2853 458.869 100.224C460.192 101.12 461.771 101.803 463.605 102.272C465.483 102.741 467.36 103.253 469.237 103.808C471.115 104.32 472.693 105.195 473.973 106.432C475.296 107.627 475.957 109.205 475.957 111.168C475.957 114.027 474.763 116.203 472.373 117.696C470.027 119.189 467.189 119.936 463.861 119.936C461.899 119.936 459.317 119.403 456.117 118.336C452.96 117.269 451.381 115.989 451.381 114.496C451.381 113.387 452.32 112.832 454.197 112.832C454.752 112.832 455.477 113.173 456.373 113.856C459.104 115.861 461.899 116.864 464.757 116.864C466.293 116.864 467.616 116.608 468.725 116.096C470.773 115.115 471.797 113.536 471.797 111.36C471.797 110.037 471.136 108.971 469.813 108.16C468.533 107.349 466.955 106.709 465.077 106.24C463.243 105.771 461.387 105.259 459.509 104.704C457.632 104.149 456.032 103.232 454.709 101.952C453.429 100.629 452.789 98.9653 452.789 96.96C452.789 94.3573 453.963 92.2453 456.309 90.624C458.656 89.0027 461.557 88.192 465.013 88.192C467.36 88.192 469.472 88.8107 471.349 90.048C473.269 91.2427 474.229 92.992 474.229 95.296C474.229 96.832 473.355 97.6 471.605 97.6C470.88 97.6 470.389 97.472 470.133 97.216C469.92 96.96 469.792 96.512 469.749 95.872C469.749 95.1893 469.707 94.6987 469.621 94.4ZM502.936 96C502.126 96.8107 501.315 97.216 500.504 97.216C499.694 97.216 499.032 96.8747 498.52 96.192C498.051 95.4667 497.667 94.6987 497.368 93.888C497.07 93.0347 496.515 92.2667 495.704 91.584C494.936 90.8587 493.955 90.496 492.76 90.496C491.096 90.6667 489.582 91.8613 488.216 94.08C486.851 96.256 485.848 98.6667 485.208 101.312C484.568 103.957 484.248 106.453 484.248 108.8C484.248 111.104 484.888 113.109 486.168 114.816C487.491 116.48 489.262 117.312 491.48 117.312C494.04 117.312 496.088 116.416 497.624 114.624C498.264 113.856 498.862 113.088 499.416 112.32C500.782 110.528 502.019 109.632 503.128 109.632C503.512 109.632 504.067 109.739 504.792 109.952C504.792 111.531 503.342 113.621 500.44 116.224C497.582 118.784 494.467 120.064 491.096 120.064C487.726 120.064 485.059 118.997 483.096 116.864C481.176 114.688 480.216 111.893 480.216 108.48C480.216 104.085 481.283 99.6907 483.416 95.296C484.483 93.1627 485.934 91.4133 487.768 90.048C489.603 88.64 491.651 87.936 493.912 87.936C496.174 87.936 497.987 88.704 499.352 90.24C500.76 91.7333 501.955 93.6533 502.936 96ZM510.379 106.752L510.955 78.08C510.955 75.8613 510.827 74.3467 510.571 73.536C511.339 72.8533 512.512 72.512 514.091 72.512C514.731 77.0773 515.051 82.944 515.051 90.112C515.051 92.2453 514.859 97.1947 514.475 104.96C516.48 94.1653 520.064 88.768 525.227 88.768C527.061 88.768 528.469 89.7493 529.451 91.712C530.475 93.632 531.115 95.9787 531.371 98.752C531.627 101.525 531.84 104.299 532.011 107.072C532.437 113.728 533.632 117.056 535.595 117.056C535.637 117.056 536.043 116.928 536.811 116.672C538.517 116.16 539.477 116.032 539.691 116.288C539.691 116.757 539.029 117.355 537.707 118.08C536.384 118.763 535.168 119.104 534.059 119.104C532.181 119.104 530.731 118.144 529.707 116.224C528.725 114.261 528.107 111.893 527.851 109.12C527.637 106.347 527.467 103.595 527.339 100.864C527.253 98.0907 526.976 95.744 526.507 93.824C526.037 91.8613 525.248 90.88 524.139 90.88C522.773 90.88 521.515 92.3733 520.363 95.36C519.253 98.304 518.379 101.568 517.739 105.152C517.099 108.736 516.309 112.021 515.371 115.008C514.475 117.952 513.557 119.424 512.619 119.424C511.125 119.424 510.379 115.2 510.379 106.752ZM544.509 107.008C544.423 107.861 544.381 108.437 544.381 108.736C544.381 111.296 545.149 113.28 546.685 114.688C548.263 116.096 550.119 116.8 552.253 116.8C554.386 116.8 556.114 116.501 557.437 115.904C558.802 115.307 559.783 114.667 560.381 113.984C561.917 112.064 563.325 111.104 564.605 111.104C565.074 111.104 565.629 111.232 566.269 111.488C565.842 113.579 564.221 115.499 561.405 117.248C558.631 118.955 555.133 119.808 550.909 119.808C547.922 119.808 545.341 118.869 543.165 116.992C541.031 115.072 539.965 112.469 539.965 109.184C539.965 105.899 540.605 102.72 541.885 99.648C543.207 96.5333 545.085 93.888 547.517 91.712C549.991 89.4933 552.487 88.384 555.005 88.384C557.565 88.384 559.613 88.9173 561.149 89.984C562.727 91.008 563.517 92.5227 563.517 94.528C563.517 98.24 561.853 101.312 558.525 103.744C555.239 106.133 551.741 107.328 548.029 107.328C547.047 107.328 545.874 107.221 544.509 107.008ZM549.373 104.896C551.378 104.896 553.17 104.256 554.749 102.976C556.327 101.696 557.437 100.352 558.077 98.944C558.759 97.536 559.101 96.256 559.101 95.104C559.101 93.952 558.653 92.9493 557.757 92.096C556.861 91.2 555.815 90.752 554.621 90.752C552.487 90.752 550.503 92.224 548.669 95.168C546.877 98.112 545.597 101.163 544.829 104.32C546.706 104.704 548.221 104.896 549.373 104.896ZM597.799 118.208C597.031 119.019 596.156 119.424 595.175 119.424C593.34 119.424 591.975 118.443 591.079 116.48C590.183 114.517 589.649 112.128 589.479 109.312C589.351 106.496 589.265 103.68 589.223 100.864C589.18 98.048 588.945 95.6587 588.519 93.696C588.135 91.7333 587.388 90.752 586.279 90.752C584.785 90.752 583.505 92.096 582.439 94.784C581.415 97.472 580.689 100.459 580.263 103.744C579.068 112.917 577.916 118.059 576.807 119.168C576.039 119.552 575.377 119.744 574.823 119.744C574.268 119.744 573.799 119.68 573.415 119.552C572.519 115.627 571.943 108.864 571.687 99.264C571.601 94.4853 571.516 91.392 571.431 89.984C572.327 89.3867 573.095 89.088 573.735 89.088C574.375 89.088 574.887 89.152 575.271 89.28C575.484 91.1147 575.591 94.8693 575.591 100.544C575.633 106.219 575.676 109.483 575.719 110.336C575.932 109.44 576.188 107.989 576.487 105.984C576.828 103.979 577.127 102.336 577.383 101.056C577.639 99.7333 578.044 98.1973 578.599 96.448C579.153 94.6987 579.772 93.312 580.455 92.288C581.137 91.2213 582.076 90.3253 583.271 89.6C584.465 88.832 585.809 88.448 587.303 88.448C589.308 88.448 590.759 89.3653 591.655 91.2C592.593 92.992 593.105 95.232 593.191 97.92C593.276 100.608 593.319 103.339 593.319 106.112C593.361 108.885 593.703 111.424 594.343 113.728C595.025 116.032 596.177 117.525 597.799 118.208Z" fill="#3D97DB" style="fill:#3D97DB;fill:color(display-p3 0.2408 0.5917 0.8600);fill-opacity:1;"/>
<path d="M305.082 48H297.914V43.392H297.786C296.89 45.056 295.546 46.4 293.754 47.424C292.005 48.4053 290.213 48.896 288.378 48.896C284.026 48.896 280.869 47.8293 278.906 45.696C276.986 43.52 276.026 40.256 276.026 35.904V14.912H283.322V35.2C283.322 38.1013 283.877 40.1493 284.986 41.344C286.096 42.5387 287.653 43.136 289.658 43.136C291.194 43.136 292.474 42.9013 293.498 42.432C294.522 41.9627 295.354 41.344 295.994 40.576C296.634 39.7653 297.082 38.8053 297.338 37.696C297.637 36.5867 297.786 35.392 297.786 34.112V14.912H305.082V48ZM312.776 14.912H319.688V19.776L319.816 19.904C320.926 18.0693 322.376 16.64 324.168 15.616C325.96 14.5493 327.944 14.016 330.12 14.016C333.747 14.016 336.606 14.9547 338.696 16.832C340.787 18.7093 341.832 21.5253 341.832 25.28V48H334.536V27.2C334.451 24.5973 333.896 22.72 332.872 21.568C331.848 20.3733 330.248 19.776 328.072 19.776C326.835 19.776 325.726 20.0107 324.744 20.48C323.763 20.9067 322.931 21.5253 322.248 22.336C321.566 23.104 321.032 24.0213 320.648 25.088C320.264 26.1547 320.072 27.2853 320.072 28.48V48H312.776V14.912ZM380.694 48H373.782V43.52H373.654C372.673 45.44 371.244 46.8267 369.366 47.68C367.489 48.4907 365.505 48.896 363.414 48.896C360.812 48.896 358.529 48.448 356.566 47.552C354.646 46.6133 353.046 45.3547 351.766 43.776C350.486 42.1973 349.526 40.3413 348.886 38.208C348.246 36.032 347.926 33.7067 347.926 31.232C347.926 28.2453 348.332 25.664 349.142 23.488C349.953 21.312 351.02 19.52 352.342 18.112C353.708 16.704 355.244 15.68 356.95 15.04C358.7 14.3573 360.47 14.016 362.262 14.016C363.286 14.016 364.332 14.1227 365.398 14.336C366.465 14.5067 367.489 14.8053 368.47 15.232C369.452 15.6587 370.348 16.2133 371.158 16.896C372.012 17.536 372.716 18.304 373.27 19.2H373.398V2.304H380.694V48ZM355.222 31.808C355.222 33.216 355.393 34.6027 355.734 35.968C356.118 37.3333 356.673 38.5493 357.398 39.616C358.166 40.6827 359.126 41.536 360.278 42.176C361.43 42.816 362.796 43.136 364.374 43.136C365.996 43.136 367.382 42.7947 368.534 42.112C369.729 41.4293 370.689 40.5333 371.414 39.424C372.182 38.3147 372.737 37.0773 373.078 35.712C373.462 34.304 373.654 32.8747 373.654 31.424C373.654 27.7547 372.822 24.896 371.158 22.848C369.537 20.8 367.318 19.776 364.502 19.776C362.796 19.776 361.345 20.1387 360.15 20.864C358.998 21.5467 358.038 22.464 357.27 23.616C356.545 24.7253 356.012 26.0053 355.67 27.456C355.372 28.864 355.222 30.3147 355.222 31.808ZM30.4038 100.544C30.3184 99.392 30.0624 98.2827 29.6358 97.216C29.2518 96.1493 28.6971 95.232 27.9718 94.464C27.2891 93.6533 26.4358 93.0133 25.4118 92.544C24.4304 92.032 23.3211 91.776 22.0838 91.776C20.8038 91.776 19.6304 92.0107 18.5638 92.48C17.5398 92.9067 16.6438 93.5253 15.8758 94.336C15.1504 95.104 14.5531 96.0213 14.0838 97.088C13.6571 98.1547 13.4224 99.3067 13.3798 100.544H30.4038ZM13.3798 105.344C13.3798 106.624 13.5504 107.861 13.8918 109.056C14.2758 110.251 14.8304 111.296 15.5558 112.192C16.2811 113.088 17.1984 113.813 18.3078 114.368C19.4171 114.88 20.7398 115.136 22.2758 115.136C24.4091 115.136 26.1158 114.688 27.3958 113.792C28.7184 112.853 29.6998 111.467 30.3398 109.632H37.2518C36.8678 111.424 36.2064 113.024 35.2678 114.432C34.3291 115.84 33.1984 117.035 31.8758 118.016C30.5531 118.955 29.0598 119.659 27.3958 120.128C25.7744 120.64 24.0678 120.896 22.2758 120.896C19.6731 120.896 17.3691 120.469 15.3638 119.616C13.3584 118.763 11.6518 117.568 10.2438 116.032C8.87842 114.496 7.83308 112.661 7.10775 110.528C6.42508 108.395 6.08375 106.048 6.08375 103.488C6.08375 101.141 6.44642 98.9227 7.17175 96.832C7.93975 94.6987 9.00642 92.8427 10.3718 91.264C11.7798 89.6427 13.4651 88.3627 15.4278 87.424C17.3904 86.4853 19.6091 86.016 22.0838 86.016C24.6864 86.016 27.0118 86.5707 29.0598 87.68C31.1504 88.7467 32.8784 90.176 34.2438 91.968C35.6091 93.76 36.5904 95.8293 37.1878 98.176C37.8278 100.48 37.9984 102.869 37.6998 105.344H13.3798ZM43.4383 74.304H50.7343V81.216H43.4383V74.304ZM43.4383 86.912H50.7343V120H43.4383V86.912ZM58.6838 86.912H65.5958V91.776L65.7238 91.904C66.8331 90.0693 68.2838 88.64 70.0758 87.616C71.8678 86.5493 73.8518 86.016 76.0278 86.016C79.6544 86.016 82.5131 86.9547 84.6038 88.832C86.6944 90.7093 87.7397 93.5253 87.7397 97.28V120H80.4438V99.2C80.3584 96.5973 79.8038 94.72 78.7798 93.568C77.7558 92.3733 76.1558 91.776 73.9798 91.776C72.7424 91.776 71.6331 92.0107 70.6518 92.48C69.6704 92.9067 68.8384 93.5253 68.1558 94.336C67.4731 95.104 66.9398 96.0213 66.5558 97.088C66.1718 98.1547 65.9798 99.2853 65.9798 100.48V120H58.6838V86.912ZM92.1698 86.912H97.6098V84.16C97.6098 82.0693 97.8658 80.384 98.3778 79.104C98.8898 77.7813 99.5724 76.7787 100.426 76.096C101.279 75.3707 102.239 74.9013 103.306 74.688C104.415 74.432 105.567 74.304 106.762 74.304C109.108 74.304 110.815 74.4533 111.882 74.752V80.448C111.412 80.32 110.9 80.2347 110.346 80.192C109.834 80.1067 109.215 80.064 108.49 80.064C107.508 80.064 106.655 80.2987 105.93 80.768C105.247 81.2373 104.906 82.1547 104.906 83.52V86.912H111.114V92.352H104.906V120H97.6098V92.352H92.1698V86.912ZM143.333 112.64C143.333 113.536 143.44 114.176 143.653 114.56C143.909 114.944 144.379 115.136 145.061 115.136C145.275 115.136 145.531 115.136 145.829 115.136C146.128 115.136 146.469 115.093 146.853 115.008V120.064C146.597 120.149 146.256 120.235 145.829 120.32C145.445 120.448 145.04 120.555 144.613 120.64C144.187 120.725 143.76 120.789 143.333 120.832C142.907 120.875 142.544 120.896 142.245 120.896C140.752 120.896 139.515 120.597 138.533 120C137.552 119.403 136.912 118.357 136.613 116.864C135.163 118.272 133.371 119.296 131.237 119.936C129.147 120.576 127.12 120.896 125.157 120.896C123.664 120.896 122.235 120.683 120.869 120.256C119.504 119.872 118.288 119.296 117.221 118.528C116.197 117.717 115.365 116.715 114.725 115.52C114.128 114.283 113.829 112.853 113.829 111.232C113.829 109.184 114.192 107.52 114.917 106.24C115.685 104.96 116.667 103.957 117.861 103.232C119.099 102.507 120.464 101.995 121.957 101.696C123.493 101.355 125.029 101.099 126.565 100.928C127.888 100.672 129.147 100.501 130.341 100.416C131.536 100.288 132.581 100.096 133.477 99.84C134.416 99.584 135.141 99.2 135.653 98.688C136.208 98.1333 136.485 97.3227 136.485 96.256C136.485 95.3173 136.251 94.5493 135.781 93.952C135.355 93.3547 134.8 92.9067 134.117 92.608C133.477 92.2667 132.752 92.0533 131.941 91.968C131.131 91.84 130.363 91.776 129.637 91.776C127.589 91.776 125.904 92.2027 124.581 93.056C123.259 93.9093 122.512 95.232 122.341 97.024H115.045C115.173 94.8907 115.685 93.12 116.581 91.712C117.477 90.304 118.608 89.1733 119.973 88.32C121.381 87.4667 122.96 86.8693 124.709 86.528C126.459 86.1867 128.251 86.016 130.085 86.016C131.707 86.016 133.307 86.1867 134.885 86.528C136.464 86.8693 137.872 87.424 139.109 88.192C140.389 88.96 141.413 89.9627 142.181 91.2C142.949 92.3947 143.333 93.8667 143.333 95.616V112.64ZM136.037 103.424C134.928 104.149 133.563 104.597 131.941 104.768C130.32 104.896 128.699 105.109 127.077 105.408C126.309 105.536 125.563 105.728 124.837 105.984C124.112 106.197 123.472 106.517 122.917 106.944C122.363 107.328 121.915 107.861 121.573 108.544C121.275 109.184 121.125 109.973 121.125 110.912C121.125 111.723 121.36 112.405 121.829 112.96C122.299 113.515 122.853 113.963 123.493 114.304C124.176 114.603 124.901 114.816 125.669 114.944C126.48 115.072 127.205 115.136 127.845 115.136C128.656 115.136 129.531 115.029 130.469 114.816C131.408 114.603 132.283 114.24 133.093 113.728C133.947 113.216 134.651 112.576 135.205 111.808C135.76 110.997 136.037 110.016 136.037 108.864V103.424ZM173.52 97.984C173.221 95.936 172.389 94.4 171.024 93.376C169.701 92.3093 168.016 91.776 165.968 91.776C165.029 91.776 164.026 91.9467 162.96 92.288C161.893 92.5867 160.912 93.184 160.016 94.08C159.12 94.9333 158.373 96.1493 157.776 97.728C157.178 99.264 156.88 101.291 156.88 103.808C156.88 105.173 157.029 106.539 157.328 107.904C157.669 109.269 158.181 110.485 158.864 111.552C159.589 112.619 160.506 113.493 161.616 114.176C162.725 114.816 164.069 115.136 165.648 115.136C167.781 115.136 169.53 114.475 170.896 113.152C172.304 111.829 173.178 109.973 173.52 107.584H180.816C180.133 111.893 178.49 115.2 175.888 117.504C173.328 119.765 169.914 120.896 165.648 120.896C163.045 120.896 160.741 120.469 158.736 119.616C156.773 118.72 155.109 117.525 153.744 116.032C152.378 114.496 151.333 112.683 150.608 110.592C149.925 108.501 149.584 106.24 149.584 103.808C149.584 101.333 149.925 99.008 150.608 96.832C151.29 94.656 152.314 92.7787 153.68 91.2C155.045 89.5787 156.73 88.32 158.736 87.424C160.784 86.4853 163.173 86.016 165.904 86.016C167.824 86.016 169.637 86.272 171.344 86.784C173.093 87.2533 174.629 87.9787 175.952 88.96C177.317 89.9413 178.426 91.1787 179.28 92.672C180.133 94.1653 180.645 95.936 180.816 97.984H173.52ZM186.746 74.304H194.042V91.264H194.17C195.066 89.7707 196.389 88.5333 198.138 87.552C199.93 86.528 201.914 86.016 204.09 86.016C207.717 86.016 210.576 86.9547 212.666 88.832C214.757 90.7093 215.802 93.5253 215.802 97.28V120H208.506V99.2C208.421 96.5973 207.866 94.72 206.842 93.568C205.818 92.3733 204.218 91.776 202.042 91.776C200.805 91.776 199.696 92.0107 198.714 92.48C197.733 92.9067 196.901 93.5253 196.218 94.336C195.536 95.104 195.002 96.0213 194.618 97.088C194.234 98.1547 194.042 99.2853 194.042 100.48V120H186.746V74.304ZM238.045 86.912H243.485V84.16C243.485 82.0693 243.741 80.384 244.253 79.104C244.765 77.7813 245.447 76.7787 246.301 76.096C247.154 75.3707 248.114 74.9013 249.181 74.688C250.29 74.432 251.442 74.304 252.637 74.304C254.983 74.304 256.69 74.4533 257.757 74.752V80.448C257.287 80.32 256.775 80.2347 256.221 80.192C255.709 80.1067 255.09 80.064 254.365 80.064C253.383 80.064 252.53 80.2987 251.805 80.768C251.122 81.2373 250.781 82.1547 250.781 83.52V86.912H256.989V92.352H250.781V120H243.485V92.352H238.045V86.912ZM290.552 120H283.384V115.392H283.256C282.36 117.056 281.016 118.4 279.224 119.424C277.475 120.405 275.683 120.896 273.848 120.896C269.496 120.896 266.339 119.829 264.376 117.696C262.456 115.52 261.496 112.256 261.496 107.904V86.912H268.792V107.2C268.792 110.101 269.347 112.149 270.456 113.344C271.566 114.539 273.123 115.136 275.128 115.136C276.664 115.136 277.944 114.901 278.968 114.432C279.992 113.963 280.824 113.344 281.464 112.576C282.104 111.765 282.552 110.805 282.808 109.696C283.107 108.587 283.256 107.392 283.256 106.112V86.912H290.552V120ZM266.808 81.472V74.56H274.104V81.472H266.808ZM285.112 74.56V81.472H277.816V74.56H285.112ZM298.246 86.912H305.094V93.312H305.222C305.436 92.416 305.841 91.5413 306.438 90.688C307.078 89.8347 307.825 89.0667 308.678 88.384C309.574 87.6587 310.556 87.0827 311.622 86.656C312.689 86.2293 313.777 86.016 314.886 86.016C315.74 86.016 316.316 86.0373 316.614 86.08C316.956 86.1227 317.297 86.1653 317.638 86.208V93.248C317.126 93.1627 316.593 93.0987 316.038 93.056C315.526 92.9707 315.014 92.928 314.502 92.928C313.265 92.928 312.092 93.184 310.982 93.696C309.916 94.1653 308.977 94.8907 308.166 95.872C307.356 96.8107 306.716 97.984 306.246 99.392C305.777 100.8 305.542 102.421 305.542 104.256V120H298.246V86.912Z" fill="#C7C7C7" style="fill:#C7C7C7;fill:color(display-p3 0.7800 0.7800 0.7800);fill-opacity:1;"/>
</svg>
